<svg id="Flat" height="512" viewBox="0 0 512 512" width="512" xmlns="http://www.w3.org/2000/svg"><g><path d="m90 448h-2v-24a24 24 0 0 0 -24-24h-16a24 24 0 0 0 -24 24v64h104v-8l-8-2a30 30 0 0 0 -30-30z" fill="#79d8eb"/><path d="m422 448h2v-24a24 24 0 0 1 24-24h16a24 24 0 0 1 24 24v64h-104v-8l8-2a30 30 0 0 1 30-30z" fill="#79d8eb"/><path d="m120 256h272v232h-272z" fill="#fac850" transform="matrix(-1 0 0 -1 512 744)"/><g><path d="m320 456v-248h-128v248h-72v32h272v-32z" fill="#fa5d3f"/><path d="m232 424h48v64h-48z" fill="#fac850"/><g fill="#fff9f8"><path d="m216 320h16v16h-16z"/><path d="m248 320h16v16h-16z"/><path d="m280 320h16v16h-16z"/><path d="m216 352h16v16h-16z"/><path d="m248 352h16v16h-16z"/><path d="m280 352h16v16h-16z"/><path d="m216 384h16v16h-16z"/><path d="m248 384h16v16h-16z"/><path d="m280 384h16v16h-16z"/><path d="m216 256h16v16h-16z"/><path d="m248 256h16v16h-16z"/><path d="m280 256h16v16h-16z"/><path d="m216 288h16v16h-16z"/><path d="m248 288h16v16h-16z"/><path d="m280 288h16v16h-16z"/></g></g><path d="m256.004 24 22.419 45.427 50.132 7.284-36.276 35.36 8.564 49.929-44.839-23.573-44.839 23.573 8.563-49.929-36.275-35.36 50.131-7.284z" fill="#fac850"/><path d="m386.327 112 15.551 31.511 34.775 5.053-25.163 24.528 5.94 34.635-31.103-16.352-31.104 16.352 5.94-34.635-25.163-24.528 34.775-5.053z" fill="#fac850"/><path d="m453.486 216 10.666 21.61 23.848 3.466-17.257 16.821 4.074 23.752-21.331-11.214-21.33 11.214 4.074-23.752-17.257-16.821 23.848-3.466z" fill="#fac850"/><path d="m125.673 112-15.551 31.511-34.775 5.053 25.163 24.528-5.94 34.635 31.103-16.352 31.104 16.352-5.94-34.635 25.163-24.528-34.775-5.053z" fill="#fac850"/><path d="m58.514 216-10.666 21.61-23.848 3.466 17.257 16.821-4.074 23.752 21.331-11.214 21.33 11.214-4.074-23.752 17.257-16.821-23.848-3.466z" fill="#fac850"/><g fill="#fffdfa"><path d="m144 288h24v16h-24z"/><path d="m144 328h24v16h-24z"/><path d="m144 368h24v16h-24z"/><path d="m144 408h24v16h-24z"/><path d="m344 368h24v16h-24z"/><path d="m344 408h24v16h-24z"/><path d="m344 288h24v16h-24z"/><path d="m344 328h24v16h-24z"/></g><path d="m224 184h64v48h-64z" fill="#fac850"/></g></svg>